<svg width="140" height="48" viewBox="0 0 140 48" fill="none" xmlns="http://www.w3.org/2000/svg">
<rect y="2.99976" width="140" height="45" rx="22.5" fill="#414141"/>
<rect width="140" height="45" rx="22.5" fill="#818181"/>
<path d="M37.9678 21.6469C38.8868 22.1281 38.8868 23.4436 37.9678 23.9249L28.2037 29.0378C27.3476 29.4861 26.3215 28.8651 26.3215 27.8988L26.3215 17.6729C26.3215 16.7066 27.3476 16.0857 28.2037 16.5339L37.9678 21.6469Z" fill="white"/>
<path d="M65.3975 20.5527C65.3271 19.6211 64.6416 19.0762 63.4111 19.0762C62.1982 19.0762 61.583 19.6035 61.5654 20.3242C61.5479 21.1152 62.3213 21.502 63.4639 21.748L64.5713 22.0117C67.0146 22.5566 68.4385 23.7695 68.4561 25.8086C68.4385 28.2168 66.5752 29.6758 63.4111 29.6758C60.2471 29.6758 58.1904 28.2344 58.1377 25.3164H61.0205C61.0908 26.5469 62.0049 27.1797 63.376 27.1797C64.6416 27.1797 65.3975 26.6172 65.415 25.8086C65.3975 25.0703 64.7471 24.6836 63.3408 24.3672L62.0049 24.0508C59.8076 23.541 58.4717 22.4512 58.4717 20.5352C58.4541 18.1797 60.5459 16.5977 63.4287 16.5977C66.3643 16.5977 68.2451 18.1973 68.2803 20.5527H65.3975ZM75.3115 19.9551V22.1348H73.5713V26.5117C73.5713 27.1094 73.8701 27.2852 74.3799 27.3027C74.626 27.3203 75.1006 27.2852 75.4346 27.2676V29.5352C75.1533 29.5703 74.6611 29.6406 73.958 29.6406C71.8662 29.6406 70.6006 28.7793 70.6182 26.8457V22.1348H69.335V19.9551H70.6182V17.6699H73.5713V19.9551H75.3115ZM76.4014 26.8457C76.4014 24.7363 78.0361 23.9805 79.9346 23.8574C80.6201 23.8135 81.8154 23.7695 82.2197 23.752V22.9785C82.2197 22.3105 81.7275 21.9414 80.9189 21.9414C80.1279 21.9414 79.6357 22.2754 79.5127 22.9082H76.7529C76.876 21.2207 78.3174 19.832 80.9893 19.832C83.3447 19.832 85.1904 20.957 85.1904 23.0137V29.5H82.3955V28.1641H82.3252C81.7979 29.1309 80.8838 29.6758 79.5479 29.6758C77.7197 29.6758 76.4014 28.7441 76.4014 26.8457ZM79.2139 26.7227C79.2139 27.373 79.7236 27.707 80.4443 27.707C81.4463 27.707 82.2549 27.0566 82.2373 26.1074V25.4922C81.877 25.5098 80.8662 25.5537 80.4268 25.5977C79.6885 25.6855 79.2139 26.0898 79.2139 26.7227ZM87.001 29.5V19.9551H89.8838V21.6777H89.9717C90.3232 20.4297 91.167 19.8145 92.2217 19.8145C92.5029 19.8145 92.8193 19.8672 93.0654 19.9199V22.5039C92.7842 22.416 92.2568 22.3633 91.8877 22.3633C90.7803 22.3633 89.9717 23.1367 89.9717 24.2793V29.5H87.001ZM100.044 19.9551V22.1348H98.3037V26.5117C98.3037 27.1094 98.6025 27.2852 99.1123 27.3027C99.3584 27.3203 99.833 27.2852 100.167 27.2676V29.5352C99.8857 29.5703 99.3936 29.6406 98.6904 29.6406C96.5986 29.6406 95.333 28.7793 95.3506 26.8457V22.1348H94.0674V19.9551H95.3506V17.6699H98.3037V19.9551H100.044ZM105.054 16.7734L104.79 25.6152H102.276L102.013 16.7734H105.054ZM103.524 29.6758C102.646 29.6758 101.925 28.9727 101.942 28.0762C101.925 27.2148 102.646 26.5117 103.524 26.5117C104.368 26.5117 105.106 27.2148 105.124 28.0762C105.106 28.9727 104.368 29.6758 103.524 29.6758Z" fill="white"/>
</svg>
